<svg width="258" height="111" viewBox="0 0 258 111" fill="none" xmlns="http://www.w3.org/2000/svg">
<path d="M171.469 0C172.682 0 173.665 0.983524 173.665 2.19676V62.4659C173.665 77.7868 168.987 89.6116 159.63 97.9404C150.376 106.269 137.368 110.434 120.608 110.434C107.57 110.434 96.8793 107.395 88.5368 101.318C87.7063 100.713 86.5736 100.717 85.7459 101.326C77.4916 107.398 66.7993 110.434 53.669 110.434C37.0114 110.434 24.0041 106.269 14.6471 97.9404C5.39286 89.6116 0.76575 77.7868 0.765749 62.4659C0.765749 62.4659 0.765749 62.4659 0.765749 62.4659C0.765749 62.4659 0.76567 37.8595 0.765625 18.6694C0.765601 8.35598 9.12908 0.000840006 19.4425 0.000715617C25.9972 0.000636561 31.9109 0.000328354 34.9705 0.000143178C36.1838 6.97449e-05 37.1657 0.983623 37.1657 2.19692V61.3863C37.1657 67.9671 38.451 72.9026 41.0216 76.193C43.5922 79.3806 47.6024 80.9744 53.0521 80.9744C58.5018 80.9744 62.512 79.3806 65.0826 76.193C67.6533 72.9026 68.9386 67.9671 68.9386 61.3863V2.19676C68.9386 0.983523 69.9221 0 71.1353 0H103.142C104.355 0 105.338 0.983524 105.338 2.19676V61.3863C105.338 67.9671 106.624 72.9026 109.194 76.193C111.868 79.3806 115.929 80.9744 121.379 80.9744C126.829 80.9744 130.839 79.3806 133.41 76.193C135.98 72.9026 137.266 67.9671 137.266 61.3863V2.19676C137.266 0.983523 138.249 0 139.462 0H171.469Z" fill="url(#paint0_linear)"/>
<path d="M233.85 39.9745C232.656 41.1877 233.234 43.2546 234.849 43.7937C241.388 45.9755 246.527 49.3719 250.268 53.983C254.793 59.3298 257.055 65.8077 257.055 73.4168C257.055 79.8947 255.255 85.9614 251.656 91.6167C248.16 97.1693 242.711 101.694 235.307 105.19C227.904 108.686 218.701 110.434 207.699 110.434C200.09 110.434 192.481 109.611 184.872 107.966C178.297 106.525 172.88 104.834 166.869 101.378C165.571 100.632 165.472 98.8245 166.55 97.787C173.866 90.7496 176.28 82.4096 177.076 77.672C177.357 76.0014 179.313 74.9352 180.831 75.6863C184.266 77.3855 187.875 78.7369 191.658 79.7405C196.799 81.0772 201.735 81.7456 206.465 81.7456C210.681 81.7456 214.074 81.0258 216.645 79.5862C219.215 78.1467 220.501 76.0902 220.501 73.4168C220.501 68.4812 216.233 66.0134 207.699 66.0134H195.552C194.338 66.0134 193.355 65.0299 193.355 63.8166V44.5466C193.355 43.9713 193.58 43.419 193.983 43.0083L205.577 31.1893C206.941 29.7994 205.956 27.4542 204.009 27.4542H172.323C171.35 27.4542 170.493 26.8136 170.217 25.8801L163.401 2.81944C162.984 1.41183 164.039 0 165.507 0H248.997C250.21 0 251.194 0.983524 251.194 2.19676V21.4642C251.194 22.041 250.967 22.5947 250.562 23.0057L233.85 39.9745Z" fill="url(#paint1_linear)"/>
<defs>
<linearGradient id="paint0_linear" x1="0.765622" y1="37.4174" x2="257.055" y2="37.4174" gradientUnits="userSpaceOnUse">
<stop stop-color="#179BC8"/>
<stop offset="1" stop-color="#1ED989"/>
</linearGradient>
<linearGradient id="paint1_linear" x1="0.765622" y1="37.4174" x2="257.055" y2="37.4174" gradientUnits="userSpaceOnUse">
<stop stop-color="#179BC8"/>
<stop offset="1" stop-color="#1ED989"/>
</linearGradient>
</defs>
</svg>
